<svg xmlns="http://www.w3.org/2000/svg" viewBox="0 0 512 512" role="img" aria-label="XK Radio logo">
  <defs>
    <linearGradient id="shell" x1="72" y1="56" x2="440" y2="456" gradientUnits="userSpaceOnUse">
      <stop offset="0" stop-color="#07151b"/>
      <stop offset="0.42" stop-color="#061f2a"/>
      <stop offset="1" stop-color="#02070c"/>
    </linearGradient>
    <linearGradient id="stroke" x1="86" y1="78" x2="426" y2="430" gradientUnits="userSpaceOnUse">
      <stop offset="0" stop-color="#e8fbff"/>
      <stop offset="0.26" stop-color="#37e5ff"/>
      <stop offset="0.62" stop-color="#1176ff"/>
      <stop offset="1" stop-color="#8bdcff"/>
    </linearGradient>
    <linearGradient id="letters" x1="132" y1="126" x2="386" y2="370" gradientUnits="userSpaceOnUse">
      <stop offset="0" stop-color="#ffffff"/>
      <stop offset="0.30" stop-color="#8cf7ff"/>
      <stop offset="0.64" stop-color="#2097ff"/>
      <stop offset="1" stop-color="#f7fdff"/>
    </linearGradient>
    <radialGradient id="glow" cx="50%" cy="44%" r="54%">
      <stop offset="0" stop-color="#32e8ff" stop-opacity="0.62"/>
      <stop offset="0.42" stop-color="#1377ff" stop-opacity="0.22"/>
      <stop offset="1" stop-color="#000000" stop-opacity="0"/>
    </radialGradient>
    <filter id="softGlow" x="-40%" y="-40%" width="180%" height="180%">
      <feGaussianBlur stdDeviation="9" result="blur"/>
      <feColorMatrix in="blur" type="matrix" values="0 0 0 0 0.08 0 0 0 0 0.78 0 0 0 0 1 0 0 0 0.92 0"/>
      <feMerge>
        <feMergeNode/>
        <feMergeNode in="SourceGraphic"/>
      </feMerge>
    </filter>
  </defs>
  <rect x="38" y="38" width="436" height="436" rx="86" fill="url(#shell)"/>
  <rect x="51" y="51" width="410" height="410" rx="74" fill="none" stroke="url(#stroke)" stroke-width="7" opacity="0.92"/>
  <rect x="66" y="66" width="380" height="380" rx="60" fill="url(#glow)" opacity="0.86"/>
  <path d="M92 284c76-90 251-90 328 0" fill="none" stroke="#65eeff" stroke-width="7" stroke-linecap="round" opacity="0.52"/>
  <path d="M118 318c64-58 212-58 276 0" fill="none" stroke="#1b87ff" stroke-width="5" stroke-linecap="round" opacity="0.42"/>
  <circle cx="256" cy="301" r="11" fill="#eaffff" opacity="0.86"/>
  <circle cx="187" cy="304" r="6" fill="#8cf7ff" opacity="0.58"/>
  <circle cx="325" cy="304" r="6" fill="#8cf7ff" opacity="0.58"/>
  <g filter="url(#softGlow)">
    <path d="M145 147h45l48 72 49-72h44l-70 102 75 112h-47l-53-79-54 79h-46l77-112-68-102Z" fill="url(#letters)"/>
    <path d="M345 147h39v86l77-86h49l-84 91 89 123h-49l-66-92-16 17v75h-39V147Z" transform="translate(-54 0)" fill="url(#letters)" opacity="0.98"/>
  </g>
  <path d="M95 96h322" stroke="#ffffff" stroke-width="2" stroke-linecap="round" opacity="0.16"/>
  <path d="M103 426h306" stroke="#32e8ff" stroke-width="2" stroke-linecap="round" opacity="0.13"/>
</svg>
